<svg width="869" height="834" viewBox="0 0 869 834" fill="none" xmlns="http://www.w3.org/2000/svg">
<mask id="path-1-outside-1_75_207" maskUnits="userSpaceOnUse" x="0" y="0" width="869" height="834" fill="black">
<rect fill="white" width="869" height="834"/>
<path d="M860 478.733C860 669.971 669.497 825 434.5 825C199.503 825 9 669.971 9 478.733C9 287.494 199.503 132.465 434.5 132.465C669.497 132.465 860 287.494 860 478.733Z"/>
<path d="M367.949 387.434L284.89 487.106C274.273 500.126 263.822 509.764 253.537 516.018C243.225 521.878 233.527 525.118 224.445 525.737C214.572 526.411 205.315 524.464 196.672 519.897C188.029 515.33 179.857 508.946 172.156 500.744L267.291 394.894L159.925 304.045C175.585 283.541 191.906 272.71 208.887 271.551C227.842 270.259 249.368 280.492 273.467 302.251L367.949 387.434Z"/>
<path d="M459.612 387.434L542.671 487.106C553.288 500.126 563.739 509.764 574.024 516.018C584.336 521.878 594.033 525.118 603.116 525.737C612.988 526.411 622.246 524.464 630.889 519.897C639.532 515.33 647.704 508.946 655.405 500.744L560.27 394.894L667.636 304.045C651.975 283.541 635.655 272.71 618.674 271.551C599.719 270.259 578.192 280.492 554.094 302.251L459.612 387.434Z"/>
<path d="M562.585 630.376V635.599C562.585 641.984 561.86 648.514 560.408 655.188C558.957 662.153 556.2 668.393 552.136 673.907C548.362 679.711 542.993 684.354 536.026 687.836C529.35 691.319 520.787 693.06 510.338 693.06H460.703C450.253 693.06 441.545 691.319 434.579 687.836C427.903 684.354 422.533 679.711 418.47 673.907C414.696 668.393 412.084 662.153 410.632 655.188C409.181 648.514 408.455 641.984 408.455 635.599V630.376H562.585ZM520.787 535.043C525.722 535.043 530.656 535.914 535.591 537.655C540.525 539.396 545.024 542.153 549.088 545.926C553.152 549.699 556.345 554.342 558.667 559.856C561.279 565.37 562.585 571.899 562.585 579.445C562.585 587.28 561.424 593.665 559.102 598.598C556.78 603.532 553.877 607.45 550.394 610.352C547.201 613.254 543.573 615.285 539.509 616.446C535.446 617.607 531.672 618.187 528.189 618.187C526.157 618.187 523.4 618.042 519.917 617.752C516.433 617.752 513.531 617.316 511.209 616.446C512.95 614.414 514.257 612.528 515.127 610.787C515.998 609.046 516.433 606.869 516.433 604.257C516.433 595.841 511.064 591.633 500.324 591.633H478.554C477.974 589.312 477.683 586.41 477.683 582.927C477.683 578.864 478.119 574.076 478.989 568.562C480.151 563.048 482.328 557.824 485.52 552.891C488.713 547.957 493.067 543.749 498.582 540.267C504.097 536.785 511.499 535.043 520.787 535.043ZM401.054 630.376V635.599C401.054 641.984 400.328 648.514 398.877 655.188C397.425 662.153 394.668 668.393 390.604 673.907C386.831 679.711 381.461 684.354 374.495 687.836C367.819 691.319 359.256 693.06 348.806 693.06H299.171C288.722 693.06 280.014 691.319 273.047 687.836C266.371 684.354 261.002 679.711 256.938 673.907C253.164 668.393 250.552 662.153 249.101 655.188C247.649 648.514 246.924 641.984 246.924 635.599V630.376H401.054ZM287.851 535.043C296.849 535.043 304.106 536.785 309.621 540.267C315.426 543.749 319.925 547.957 323.118 552.891C326.311 557.824 328.343 563.048 329.213 568.562C330.375 574.076 330.955 578.864 330.955 582.927C330.955 586.41 330.665 589.312 330.084 591.633H308.315C297.575 591.633 292.205 595.841 292.205 604.257C292.205 606.869 292.64 609.046 293.511 610.787C294.382 612.528 295.688 614.414 297.43 616.446C295.108 617.316 292.205 617.752 288.722 617.752C285.239 618.042 282.481 618.187 280.449 618.187C276.966 618.187 273.193 617.607 269.129 616.446C265.065 615.285 261.292 613.254 257.809 610.352C254.616 607.74 251.858 603.967 249.536 599.034C247.214 594.1 246.053 587.861 246.053 580.315C246.053 572.48 247.359 565.66 249.972 559.856C252.584 554.342 255.777 549.699 259.55 545.926C263.614 542.444 268.113 539.687 273.047 537.655C277.982 535.914 282.916 535.043 287.851 535.043Z"/>
<path d="M213.083 24.456L382.405 206.719L131.758 259.545L213.083 24.456Z"/>
<path d="M695.809 17L503.765 175.152L745.169 260.808L695.809 17Z"/>
<path d="M678.279 59.2127L563.138 154.034L707.873 205.389L678.279 59.2127Z"/>
<path d="M218.535 65.4318L294.709 144.61L184.436 169.869L218.535 65.4318Z"/>
<path d="M394.919 607.322L334.931 488.602H454.906L394.919 607.322Z"/>
</mask>
<path d="M860 478.733C860 669.971 669.497 825 434.5 825C199.503 825 9 669.971 9 478.733C9 287.494 199.503 132.465 434.5 132.465C669.497 132.465 860 287.494 860 478.733Z" fill="#26200D"/>
<path d="M367.949 387.434L284.89 487.106C274.273 500.126 263.822 509.764 253.537 516.018C243.225 521.878 233.527 525.118 224.445 525.737C214.572 526.411 205.315 524.464 196.672 519.897C188.029 515.33 179.857 508.946 172.156 500.744L267.291 394.894L159.925 304.045C175.585 283.541 191.906 272.71 208.887 271.551C227.842 270.259 249.368 280.492 273.467 302.251L367.949 387.434Z" fill="#B8F5A3"/>
<path d="M459.612 387.434L542.671 487.106C553.288 500.126 563.739 509.764 574.024 516.018C584.336 521.878 594.033 525.118 603.116 525.737C612.988 526.411 622.246 524.464 630.889 519.897C639.532 515.33 647.704 508.946 655.405 500.744L560.27 394.894L667.636 304.045C651.975 283.541 635.655 272.71 618.674 271.551C599.719 270.259 578.192 280.492 554.094 302.251L459.612 387.434Z" fill="#B8F5A3"/>
<path d="M562.585 630.376V635.599C562.585 641.984 561.86 648.514 560.408 655.188C558.957 662.153 556.2 668.393 552.136 673.907C548.362 679.711 542.993 684.354 536.026 687.836C529.35 691.319 520.787 693.06 510.338 693.06H460.703C450.253 693.06 441.545 691.319 434.579 687.836C427.903 684.354 422.533 679.711 418.47 673.907C414.696 668.393 412.084 662.153 410.632 655.188C409.181 648.514 408.455 641.984 408.455 635.599V630.376H562.585ZM520.787 535.043C525.722 535.043 530.656 535.914 535.591 537.655C540.525 539.396 545.024 542.153 549.088 545.926C553.152 549.699 556.345 554.342 558.667 559.856C561.279 565.37 562.585 571.899 562.585 579.445C562.585 587.28 561.424 593.665 559.102 598.598C556.78 603.532 553.877 607.45 550.394 610.352C547.201 613.254 543.573 615.285 539.509 616.446C535.446 617.607 531.672 618.187 528.189 618.187C526.157 618.187 523.4 618.042 519.917 617.752C516.433 617.752 513.531 617.316 511.209 616.446C512.95 614.414 514.257 612.528 515.127 610.787C515.998 609.046 516.433 606.869 516.433 604.257C516.433 595.841 511.064 591.633 500.324 591.633H478.554C477.974 589.312 477.683 586.41 477.683 582.927C477.683 578.864 478.119 574.076 478.989 568.562C480.151 563.048 482.328 557.824 485.52 552.891C488.713 547.957 493.067 543.749 498.582 540.267C504.097 536.785 511.499 535.043 520.787 535.043ZM401.054 630.376V635.599C401.054 641.984 400.328 648.514 398.877 655.188C397.425 662.153 394.668 668.393 390.604 673.907C386.831 679.711 381.461 684.354 374.495 687.836C367.819 691.319 359.256 693.06 348.806 693.06H299.171C288.722 693.06 280.014 691.319 273.047 687.836C266.371 684.354 261.002 679.711 256.938 673.907C253.164 668.393 250.552 662.153 249.101 655.188C247.649 648.514 246.924 641.984 246.924 635.599V630.376H401.054ZM287.851 535.043C296.849 535.043 304.106 536.785 309.621 540.267C315.426 543.749 319.925 547.957 323.118 552.891C326.311 557.824 328.343 563.048 329.213 568.562C330.375 574.076 330.955 578.864 330.955 582.927C330.955 586.41 330.665 589.312 330.084 591.633H308.315C297.575 591.633 292.205 595.841 292.205 604.257C292.205 606.869 292.64 609.046 293.511 610.787C294.382 612.528 295.688 614.414 297.43 616.446C295.108 617.316 292.205 617.752 288.722 617.752C285.239 618.042 282.481 618.187 280.449 618.187C276.966 618.187 273.193 617.607 269.129 616.446C265.065 615.285 261.292 613.254 257.809 610.352C254.616 607.74 251.858 603.967 249.536 599.034C247.214 594.1 246.053 587.861 246.053 580.315C246.053 572.48 247.359 565.66 249.972 559.856C252.584 554.342 255.777 549.699 259.55 545.926C263.614 542.444 268.113 539.687 273.047 537.655C277.982 535.914 282.916 535.043 287.851 535.043Z" fill="#B8F5A3"/>
<path d="M213.083 24.456L382.405 206.719L131.758 259.545L213.083 24.456Z" fill="#26200D"/>
<path d="M695.809 17L503.765 175.152L745.169 260.808L695.809 17Z" fill="#26200D"/>
<path d="M678.279 59.2127L563.138 154.034L707.873 205.389L678.279 59.2127Z" fill="#98CD85"/>
<path d="M218.535 65.4318L294.709 144.61L184.436 169.869L218.535 65.4318Z" fill="#98CD85"/>
<path d="M394.919 607.322L334.931 488.602H454.906L394.919 607.322Z" fill="#B8F5A3"/>
<path d="M860 478.733C860 669.971 669.497 825 434.5 825C199.503 825 9 669.971 9 478.733C9 287.494 199.503 132.465 434.5 132.465C669.497 132.465 860 287.494 860 478.733Z" stroke="#98CD85" stroke-width="18" mask="url(#path-1-outside-1_75_207)"/>
<path d="M367.949 387.434L284.89 487.106C274.273 500.126 263.822 509.764 253.537 516.018C243.225 521.878 233.527 525.118 224.445 525.737C214.572 526.411 205.315 524.464 196.672 519.897C188.029 515.33 179.857 508.946 172.156 500.744L267.291 394.894L159.925 304.045C175.585 283.541 191.906 272.71 208.887 271.551C227.842 270.259 249.368 280.492 273.467 302.251L367.949 387.434Z" stroke="#98CD85" stroke-width="18" mask="url(#path-1-outside-1_75_207)"/>
<path d="M459.612 387.434L542.671 487.106C553.288 500.126 563.739 509.764 574.024 516.018C584.336 521.878 594.033 525.118 603.116 525.737C612.988 526.411 622.246 524.464 630.889 519.897C639.532 515.33 647.704 508.946 655.405 500.744L560.27 394.894L667.636 304.045C651.975 283.541 635.655 272.71 618.674 271.551C599.719 270.259 578.192 280.492 554.094 302.251L459.612 387.434Z" stroke="#98CD85" stroke-width="18" mask="url(#path-1-outside-1_75_207)"/>
<path d="M562.585 630.376V635.599C562.585 641.984 561.86 648.514 560.408 655.188C558.957 662.153 556.2 668.393 552.136 673.907C548.362 679.711 542.993 684.354 536.026 687.836C529.35 691.319 520.787 693.06 510.338 693.06H460.703C450.253 693.06 441.545 691.319 434.579 687.836C427.903 684.354 422.533 679.711 418.47 673.907C414.696 668.393 412.084 662.153 410.632 655.188C409.181 648.514 408.455 641.984 408.455 635.599V630.376H562.585ZM520.787 535.043C525.722 535.043 530.656 535.914 535.591 537.655C540.525 539.396 545.024 542.153 549.088 545.926C553.152 549.699 556.345 554.342 558.667 559.856C561.279 565.37 562.585 571.899 562.585 579.445C562.585 587.28 561.424 593.665 559.102 598.598C556.78 603.532 553.877 607.45 550.394 610.352C547.201 613.254 543.573 615.285 539.509 616.446C535.446 617.607 531.672 618.187 528.189 618.187C526.157 618.187 523.4 618.042 519.917 617.752C516.433 617.752 513.531 617.316 511.209 616.446C512.95 614.414 514.257 612.528 515.127 610.787C515.998 609.046 516.433 606.869 516.433 604.257C516.433 595.841 511.064 591.633 500.324 591.633H478.554C477.974 589.312 477.683 586.41 477.683 582.927C477.683 578.864 478.119 574.076 478.989 568.562C480.151 563.048 482.328 557.824 485.52 552.891C488.713 547.957 493.067 543.749 498.582 540.267C504.097 536.785 511.499 535.043 520.787 535.043ZM401.054 630.376V635.599C401.054 641.984 400.328 648.514 398.877 655.188C397.425 662.153 394.668 668.393 390.604 673.907C386.831 679.711 381.461 684.354 374.495 687.836C367.819 691.319 359.256 693.06 348.806 693.06H299.171C288.722 693.06 280.014 691.319 273.047 687.836C266.371 684.354 261.002 679.711 256.938 673.907C253.164 668.393 250.552 662.153 249.101 655.188C247.649 648.514 246.924 641.984 246.924 635.599V630.376H401.054ZM287.851 535.043C296.849 535.043 304.106 536.785 309.621 540.267C315.426 543.749 319.925 547.957 323.118 552.891C326.311 557.824 328.343 563.048 329.213 568.562C330.375 574.076 330.955 578.864 330.955 582.927C330.955 586.41 330.665 589.312 330.084 591.633H308.315C297.575 591.633 292.205 595.841 292.205 604.257C292.205 606.869 292.64 609.046 293.511 610.787C294.382 612.528 295.688 614.414 297.43 616.446C295.108 617.316 292.205 617.752 288.722 617.752C285.239 618.042 282.481 618.187 280.449 618.187C276.966 618.187 273.193 617.607 269.129 616.446C265.065 615.285 261.292 613.254 257.809 610.352C254.616 607.74 251.858 603.967 249.536 599.034C247.214 594.1 246.053 587.861 246.053 580.315C246.053 572.48 247.359 565.66 249.972 559.856C252.584 554.342 255.777 549.699 259.55 545.926C263.614 542.444 268.113 539.687 273.047 537.655C277.982 535.914 282.916 535.043 287.851 535.043Z" stroke="#98CD85" stroke-width="18" mask="url(#path-1-outside-1_75_207)"/>
<path d="M213.083 24.456L382.405 206.719L131.758 259.545L213.083 24.456Z" stroke="#98CD85" stroke-width="18" mask="url(#path-1-outside-1_75_207)"/>
<path d="M695.809 17L503.765 175.152L745.169 260.808L695.809 17Z" stroke="#98CD85" stroke-width="18" mask="url(#path-1-outside-1_75_207)"/>
<path d="M678.279 59.2127L563.138 154.034L707.873 205.389L678.279 59.2127Z" stroke="#98CD85" stroke-width="18" mask="url(#path-1-outside-1_75_207)"/>
<path d="M218.535 65.4318L294.709 144.61L184.436 169.869L218.535 65.4318Z" stroke="#98CD85" stroke-width="18" mask="url(#path-1-outside-1_75_207)"/>
<path d="M394.919 607.322L334.931 488.602H454.906L394.919 607.322Z" stroke="#98CD85" stroke-width="18" mask="url(#path-1-outside-1_75_207)"/>
</svg>
